<?xml version="1.0" standalone="no"?>
<!DOCTYPE svg PUBLIC "-//W3C//DTD SVG 20010904//EN"
 "http://www.w3.org/TR/2001/REC-SVG-20010904/DTD/svg10.dtd">
<svg version="1.0" xmlns="http://www.w3.org/2000/svg"
 width="300.000000pt" height="150.000000pt" viewBox="0 0 300.000000 150.000000"
 preserveAspectRatio="xMidYMid meet">

<g transform="translate(0.000000,150.000000) scale(0.100000,-0.100000)"
fill="#000000" stroke="none">
<path d="M160 1155 l0 -25 1355 0 1355 0 0 25 0 25 -1355 0 -1355 0 0 -25z"/>
<path d="M2095 1061 c-78 -36 -104 -91 -104 -221 0 -175 59 -240 219 -240 157
0 219 65 220 231 1 180 -61 249 -222 249 -49 0 -86 -6 -113 -19z m190 -85 c30
-30 38 -74 33 -172 -3 -69 -6 -79 -31 -100 -39 -33 -115 -34 -152 -1 -34 30
-50 115 -36 195 14 76 43 102 112 102 39 0 55 -5 74 -24z"/>
<path d="M2565 1067 c-51 -24 -68 -52 -73 -117 -4 -57 -3 -61 30 -94 25 -25
48 -37 93 -46 110 -22 130 -32 133 -67 3 -25 -2 -35 -23 -49 -22 -14 -41 -16
-124 -10 l-99 6 -5 -33 c-3 -17 -2 -35 2 -40 4 -4 57 -10 119 -14 93 -5 119
-3 157 12 58 22 85 62 85 127 0 90 -26 113 -156 143 -91 22 -104 30 -104 65 0
44 27 53 142 48 l98 -5 6 34 c4 19 4 37 0 40 -3 3 -61 8 -128 10 -91 3 -131 0
-153 -10z"/>
<path d="M160 840 l0 -230 55 0 55 0 0 230 0 230 -55 0 -55 0 0 -230z"/>
<path d="M360 840 l0 -230 55 0 55 0 2 168 3 167 86 -165 87 -165 71 -3 71 -3
0 231 0 230 -55 0 -55 0 0 -160 c0 -88 -3 -160 -8 -160 -4 0 -43 72 -87 160
l-80 160 -72 0 -73 0 0 -230z"/>
<path d="M880 840 l0 -230 55 0 55 0 0 80 0 80 95 0 95 0 0 40 0 40 -95 0 -95
0 0 70 0 70 115 0 115 0 0 40 0 40 -170 0 -170 0 0 -230z"/>
<path d="M1280 840 l0 -230 55 0 55 0 0 230 0 230 -55 0 -55 0 0 -230z"/>
<path d="M1480 840 l0 -230 55 0 55 0 0 165 c0 91 3 165 8 165 4 0 44 -74 90
-165 l82 -165 70 0 70 0 0 230 0 230 -55 0 -55 0 0 -162 c0 -194 2 -195 -105
23 l-69 139 -73 0 -73 0 0 -230z"/>
<path d="M160 525 l0 -25 1355 0 1355 0 0 25 0 25 -1355 0 -1355 0 0 -25z"/>
</g>
</svg>
